<svg width="130" height="80" viewBox="0 0 130 80" version="1.1" xmlns="http://www.w3.org/2000/svg" xmlns:xlink="http://www.w3.org/1999/xlink" xmlns:figma="http://www.figma.com/figma/ns">
<title>Butnns</title>
<desc>Created using Figma</desc>
<g id="Canvas" transform="translate(153 173)" figma:type="canvas">
<rect x="-153" y="-173" width="130" height="80" fill="#E5E5E5"/>
<g id="Rectangle" style="mix-blend-mode:normal;" figma:type="rounded-rectangle">
<use xlink:href="#path0_fill" transform="translate(-153 -173)" fill="#FFFEFE" style="mix-blend-mode:normal;"/>
<mask id="mask0_outline_ins">
<use xlink:href="#path0_fill" fill="white" transform="translate(-153 -173)"/>
</mask>
<g mask="url(#mask0_outline_ins)">
<use xlink:href="#path1_stroke_2x" transform="translate(-153 -173)" style="mix-blend-mode:normal;"/>
</g>
</g>
<g id="Butnns" style="mix-blend-mode:normal;" figma:type="text">
<use xlink:href="#path2_fill" transform="translate(-153 -153)" style="mix-blend-mode:normal;"/>
</g>
</g>
<defs>
<path id="path0_fill" d="M 0 8C 0 3.58172 3.58172 0 8 0L 122 0C 126.418 0 130 3.58172 130 8L 130 72C 130 76.4183 126.418 80 122 80L 8 80C 3.58172 80 0 76.4183 0 72L 0 8Z"/>
<path id="path1_stroke_2x" d="M 8 1L 122 1L 122 -1L 8 -1L 8 1ZM 129 8L 129 72L 131 72L 131 8L 129 8ZM 122 79L 8 79L 8 81L 122 81L 122 79ZM 1 72L 1 8L -1 8L -1 72L 1 72ZM 8 -1C 3.02944 -1 -1 3.02944 -1 8L 1 8C 1 4.13401 4.13401 1 8 1L 8 -1ZM 122 1C 125.866 1 129 4.13401 129 8L 131 8C 131 3.02944 126.971 -1 122 -1L 122 1ZM 129 72C 129 75.866 125.866 79 122 79L 122 81C 126.971 81 131 76.9706 131 72L 129 72ZM 8 79C 4.13401 79 1 75.866 1 72L -1 72C -1 76.9706 3.02944 81 8 81L 8 79Z"/>
<path id="path2_fill" d="M 22.9047 24.352L 22.9047 6.748C 22.9047 6.568 22.9677 6.415 23.0937 6.289C 23.2197 6.163 23.3727 6.1 23.5527 6.1L 27.7647 6.1C 29.0607 6.1 30.1677 6.559 31.0857 7.477C 32.0037 8.395 32.4627 9.556 32.4627 10.96C 32.4627 12.346 31.8597 13.525 30.6537 14.497C 31.7337 14.875 32.6157 15.532 33.2997 16.468C 34.0017 17.386 34.3527 18.43 34.3527 19.6C 34.3527 21.094 33.8217 22.372 32.7597 23.434C 31.7157 24.478 30.4467 25 28.9527 25L 23.5257 25C 23.3457 25 23.1927 24.937 23.0667 24.811C 22.9587 24.685 22.9047 24.532 22.9047 24.352ZM 24.2277 23.677L 28.9527 23.677C 30.0687 23.677 31.0227 23.281 31.8147 22.489C 32.6067 21.697 33.0117 20.734 33.0297 19.6C 33.0117 18.484 32.6067 17.53 31.8147 16.738C 31.0227 15.928 30.0687 15.523 28.9527 15.523L 24.2277 15.523L 24.2277 23.677ZM 24.2277 14.173L 27.7647 14.173C 28.7007 14.173 29.4927 13.849 30.1407 13.201C 30.8067 12.535 31.1397 11.743 31.1397 10.825C 31.1397 9.889 30.8067 9.088 30.1407 8.422C 29.4927 7.756 28.7007 7.423 27.7647 7.423L 24.2277 7.423L 24.2277 14.173ZM 38.3689 19.6L 38.3689 12.391C 38.3689 12.211 38.4319 12.058 38.5579 11.932C 38.6839 11.806 38.8369 11.743 39.0169 11.743C 39.1969 11.743 39.3499 11.806 39.4759 11.932C 39.6019 12.058 39.6649 12.211 39.6649 12.391L 39.6649 19.6C 39.6649 20.734 40.0609 21.697 40.8529 22.489C 41.6449 23.281 42.5989 23.686 43.7149 23.704C 44.8489 23.686 45.8119 23.281 46.6039 22.489C 47.4139 21.697 47.8189 20.734 47.8189 19.6L 47.8189 12.391C 47.8189 12.211 47.8819 12.058 48.0079 11.932C 48.1519 11.806 48.3139 11.743 48.4939 11.743C 48.6739 11.743 48.8269 11.806 48.9529 11.932C 49.0789 12.058 49.1419 12.211 49.1419 12.391L 49.1419 19.6C 49.1419 21.094 48.6109 22.372 47.5489 23.434C 46.5049 24.478 45.2359 25 43.7419 25C 42.2479 25 40.9789 24.478 39.9349 23.434C 38.8909 22.372 38.3689 21.094 38.3689 19.6ZM 59.1665 11.77C 59.3285 11.77 59.4725 11.842 59.5985 11.986C 59.7425 12.112 59.8145 12.256 59.8145 12.418C 59.8145 12.58 59.7425 12.733 59.5985 12.877C 59.4725 13.003 59.3285 13.066 59.1665 13.066L 57.4655 13.066L 57.4655 22.705C 57.4655 22.993 57.5735 23.227 57.7895 23.407C 58.0235 23.587 58.2305 23.677 58.4105 23.677C 58.5905 23.677 58.7525 23.749 58.8965 23.893C 59.0405 24.037 59.1125 24.19 59.1125 24.352C 59.1125 24.514 59.0405 24.667 58.8965 24.811C 58.7525 24.937 58.5995 25 58.4375 25C 57.7715 25 57.2135 24.784 56.7635 24.352C 56.3315 23.92 56.1155 23.371 56.1155 22.705L 56.1155 13.066L 54.4685 13.066C 54.1805 13.066 54.0005 13.012 53.9285 12.904C 53.8565 12.796 53.8205 12.652 53.8205 12.472C 53.8205 12.292 53.8295 12.166 53.8475 12.094C 53.9015 11.878 54.1085 11.77 54.4685 11.77L 56.1155 11.77L 56.1155 6.856C 56.1155 6.694 56.1785 6.55 56.3045 6.424C 56.4485 6.28 56.6015 6.208 56.7635 6.208C 56.9435 6.208 57.1055 6.28 57.2495 6.424C 57.3935 6.55 57.4655 6.694 57.4655 6.856L 57.4655 11.77L 59.1665 11.77ZM 67.2771 24.46C 67.1871 24.82 66.9801 25 66.6561 25L 66.4941 25C 66.2961 24.946 66.1521 24.829 66.0621 24.649C 66.0441 24.631 66.0351 24.604 66.0351 24.568L 66.0081 24.514L 66.0081 12.445C 66.0081 12.265 66.0711 12.112 66.1971 11.986C 66.3231 11.86 66.4761 11.797 66.6561 11.797C 66.8361 11.797 66.9801 11.86 67.0881 11.986C 67.2141 12.112 67.2771 12.265 67.2771 12.445L 67.2771 13.714C 68.3391 12.436 69.6531 11.797 71.2191 11.797C 72.8031 11.797 74.1171 12.328 75.1611 13.39C 76.2231 14.434 76.7541 15.694 76.7541 17.17L 76.7541 24.352C 76.7541 24.532 76.6911 24.685 76.5651 24.811C 76.4391 24.937 76.2861 25 76.1061 25C 75.9261 25 75.7731 24.937 75.6471 24.811C 75.5211 24.685 75.4581 24.532 75.4581 24.352L 75.4581 17.17C 75.4581 16.054 75.0621 15.1 74.2701 14.308C 73.4781 13.498 72.5151 13.093 71.3811 13.093C 70.2651 13.093 69.3111 13.489 68.5191 14.281C 67.7271 15.073 67.3131 16.036 67.2771 17.17L 67.2771 24.46ZM 83.8357 24.46C 83.7457 24.82 83.5387 25 83.2147 25L 83.0527 25C 82.8547 24.946 82.7107 24.829 82.6207 24.649C 82.6027 24.631 82.5937 24.604 82.5937 24.568L 82.5667 24.514L 82.5667 12.445C 82.5667 12.265 82.6297 12.112 82.7557 11.986C 82.8817 11.86 83.0347 11.797 83.2147 11.797C 83.3947 11.797 83.5387 11.86 83.6467 11.986C 83.7727 12.112 83.8357 12.265 83.8357 12.445L 83.8357 13.714C 84.8977 12.436 86.2117 11.797 87.7777 11.797C 89.3617 11.797 90.6757 12.328 91.7197 13.39C 92.7817 14.434 93.3127 15.694 93.3127 17.17L 93.3127 24.352C 93.3127 24.532 93.2497 24.685 93.1237 24.811C 92.9977 24.937 92.8447 25 92.6647 25C 92.4847 25 92.3317 24.937 92.2057 24.811C 92.0797 24.685 92.0167 24.532 92.0167 24.352L 92.0167 17.17C 92.0167 16.054 91.6207 15.1 90.8287 14.308C 90.0367 13.498 89.0737 13.093 87.9397 13.093C 86.8237 13.093 85.8697 13.489 85.0777 14.281C 84.2857 15.073 83.8717 16.036 83.8357 17.17L 83.8357 24.46ZM 98.2883 23.11C 97.9823 22.84 97.9553 22.552 98.2073 22.246C 98.3153 22.102 98.4593 22.021 98.6393 22.003C 98.8193 21.985 98.9813 22.039 99.1253 22.165C 100.529 23.191 101.807 23.704 102.959 23.704C 104.111 23.704 105.02 23.434 105.686 22.894C 106.352 22.444 106.676 21.922 106.658 21.328C 106.658 20.716 106.361 20.176 105.767 19.708C 105.191 19.24 104.246 18.898 102.932 18.682L 102.878 18.655C 101.474 18.403 100.475 18.061 99.8813 17.629C 98.9273 17.071 98.4503 16.279 98.4503 15.253C 98.4503 14.227 98.9273 13.363 99.8813 12.661C 100.745 12.067 101.825 11.77 103.121 11.77C 103.643 11.77 104.165 11.86 104.687 12.04C 105.227 12.202 105.632 12.364 105.902 12.526C 106.19 12.67 106.577 12.895 107.063 13.201C 107.207 13.309 107.297 13.453 107.333 13.633C 107.369 13.813 107.342 13.975 107.252 14.119C 107.162 14.263 107.027 14.353 106.847 14.389C 106.667 14.425 106.505 14.398 106.361 14.308C 105.911 14.002 105.569 13.786 105.335 13.66C 105.119 13.516 104.795 13.372 104.363 13.228C 103.931 13.066 103.517 12.985 103.121 12.985C 102.077 12.985 101.258 13.228 100.664 13.714C 100.07 14.182 99.7733 14.677 99.7733 15.199C 99.7733 15.721 100.025 16.18 100.529 16.576C 101.159 17.008 102.059 17.314 103.229 17.494L 103.283 17.494C 104.453 17.674 105.524 18.034 106.496 18.574C 107.486 19.222 107.981 20.095 107.981 21.193C 107.981 22.273 107.486 23.182 106.496 23.92C 105.524 24.64 104.417 25 103.175 25C 101.465 24.982 99.8363 24.352 98.2883 23.11Z"/>
</defs>
</svg>
